<svg width="570" height="170" viewBox="0 0 570 170" fill="none" xmlns="http://www.w3.org/2000/svg">
<rect width="570" height="170" fill="white"/>
<path fill-rule="evenodd" clip-rule="evenodd" d="M80.2699 83.8484C80.2699 89.4436 77.218 94.0214 72.6402 96.5646C70.6056 97.5819 69.0797 100.125 69.0797 102.668L68.571 110.807C68.571 112.841 66.5364 114.876 64.5018 114.876C62.4673 114.876 60.4327 113.35 60.4327 110.807V102.668C60.4327 100.125 58.9067 98.0906 56.8721 96.5646C52.2943 93.5127 49.2424 88.9349 49.2424 82.8311C49.2424 77.236 49.2424 71.6409 50.2597 66.0458C50.7684 64.0112 52.2943 62.4853 54.3289 62.9939C56.3635 63.5026 57.3808 65.0285 57.3808 67.0631C56.8721 71.1323 56.3635 73.6755 56.3635 78.762C56.3635 80.2879 57.3808 81.3052 58.9067 81.3052C60.4327 81.3052 61.45 80.2879 61.45 78.762V64.5199C61.45 62.4853 63.4845 60.4507 65.5191 60.9593C67.0451 61.468 68.571 62.9939 68.571 65.0285V79.2706C68.571 80.7966 69.5883 81.8139 71.1143 81.8139C72.6402 81.8139 73.6575 80.7966 73.6575 79.2706C73.6575 74.1842 73.1488 71.6409 72.6402 67.5717C72.1315 65.5371 73.6575 63.5026 75.6921 63.5026C77.7267 62.9939 79.2526 64.5199 79.7612 66.5545C80.2699 72.1496 80.7785 78.2533 80.2699 83.8484ZM100.107 60.4507C109.263 60.4507 113.841 74.6928 113.841 83.8484C113.841 88.9349 111.297 93.0041 107.228 95.5473C105.194 96.5646 104.176 98.5992 104.176 101.142L103.668 110.807C103.668 112.841 101.633 114.876 99.5985 114.876C97.5639 114.876 95.5293 113.35 95.5293 110.807L95.0206 101.142C95.0206 99.1079 93.4947 97.0733 91.9688 95.5473C88.4082 93.0041 85.3564 88.4263 85.3564 83.8484C86.3737 74.6928 90.9515 60.4507 100.107 60.4507Z" fill="white"/>
<path d="M83.8301 136.747C110.798 136.747 132.66 114.885 132.66 87.917C132.66 60.9489 110.798 39.0869 83.8301 39.0869C56.862 39.0869 35 60.9489 35 87.917C35 114.885 56.862 136.747 83.8301 136.747Z" fill="#EE2737"/>
<path d="M82.3039 83.8484C82.3039 88.9349 79.2521 94.0214 74.6742 96.5646C72.6397 97.5819 71.1137 100.125 71.1137 102.668L70.6051 110.807C70.6051 112.841 69.0791 114.876 66.5359 114.876C64.5013 114.876 62.4667 112.841 62.4667 110.807V102.668C62.4667 100.125 60.9408 98.0906 58.9062 96.5646C54.3284 93.5127 51.2765 88.4263 51.2765 82.8311C51.2765 77.236 51.2765 71.6409 52.2938 66.0458C52.2938 65.0285 52.8024 64.0112 53.8197 63.5026C54.837 62.9939 55.3457 62.4853 56.363 62.9939C58.3975 63.5026 59.4148 65.5371 59.4148 67.0631C58.9062 70.6236 58.3975 74.6928 58.3975 78.762C58.3975 79.2706 58.3975 80.2879 58.9062 80.2879C59.4148 80.2879 59.9235 80.7966 60.4321 81.3052C61.9581 81.3052 62.9754 80.2879 62.9754 78.762V64.5199C62.9754 63.5026 63.484 62.4853 63.9927 61.468C65.01 60.9593 66.0272 60.4507 67.0445 60.4507C69.0791 60.9593 70.0964 62.4853 70.0964 64.5199V78.762C70.0964 79.7793 70.6051 80.2879 71.1137 80.7966C72.131 81.3052 72.6397 81.3052 73.657 80.7966C74.6743 80.2879 74.6742 79.2706 74.6742 78.762C74.6742 74.6928 74.1656 71.1323 73.657 67.0631C73.1483 65.0285 74.6743 62.9939 76.7088 62.9939C77.7261 62.9939 78.7434 62.9939 79.2521 63.5026C79.7607 64.0112 80.2694 65.0285 80.778 66.0458C82.304 72.1496 82.8126 77.7447 82.3039 83.8484ZM102.141 60.4507C111.297 60.4507 115.875 74.6928 115.875 83.8484C115.875 88.4263 113.331 93.0041 109.262 95.5473C107.228 96.5646 106.21 98.5992 106.21 101.142V110.807C106.21 112.333 105.702 113.35 104.176 114.367C103.158 114.876 101.633 114.876 100.107 114.367C99.0893 113.859 98.072 112.333 98.072 110.807L97.5634 101.142C97.5634 99.1079 96.0374 97.0733 94.5115 95.5473C90.4423 93.0041 87.8991 88.4263 87.8991 83.8484C88.4077 74.6928 92.9855 60.4507 102.141 60.4507Z" fill="white"/>
<path d="M171.318 112.332C175.387 118.435 182.508 121.487 189.629 121.487C198.276 121.487 204.38 115.892 204.38 108.771V104.702C199.802 109.28 193.189 111.823 187.086 111.314C176.913 111.823 167.248 106.228 161.653 97.5809C156.567 88.9339 156.058 77.7437 161.145 69.0967C166.231 59.941 175.895 54.8545 186.068 54.8545C192.681 54.3459 199.293 56.8891 203.871 60.9583V55.8718H218.622V107.754C218.622 123.013 206.414 133.695 189.12 133.695C177.93 134.203 167.248 129.626 160.127 120.979L171.318 112.332ZM203.871 79.2696C203.871 73.1658 196.75 67.5707 189.12 67.5707C179.456 67.5707 172.844 73.6745 172.844 82.3215C172.335 86.3906 174.369 90.4598 177.421 93.5117C180.473 96.5636 184.542 98.0895 189.12 97.5809C197.767 97.5809 204.38 92.4944 204.38 85.3733V79.2696H203.871ZM256.77 53.3286C274.573 53.3286 287.289 66.0448 287.289 81.8128C287.289 98.0895 274.573 110.297 256.77 110.297C246.089 110.806 235.916 105.719 230.321 96.5636C224.726 87.4079 224.726 75.7091 230.321 66.5534C235.916 58.4151 246.089 52.8199 256.77 53.3286ZM256.77 67.0621C248.123 67.0621 241.511 74.1831 241.511 82.3215C241.511 90.9685 248.632 97.5809 256.77 97.5809C265.417 97.5809 272.03 90.4598 272.03 82.3215C272.03 78.2523 270.504 74.1831 267.452 71.1312C265.417 68.0793 261.348 66.5534 256.77 67.0621ZM302.04 68.0794H289.324V55.3632H302.548V49.768C302.548 40.1038 309.161 34.5086 320.351 34.5086H334.593V47.7335H322.386C319.334 47.7335 317.808 49.2594 317.808 51.8026V55.3632H338.154V68.0794H317.808V109.28H302.548V68.0794H302.04ZM368.673 53.3286C386.475 53.3286 399.191 66.0448 399.191 81.8128C399.191 98.0895 386.475 110.297 368.673 110.297C357.991 110.806 347.818 105.719 342.223 96.5636C336.628 87.4079 336.628 75.7091 342.223 66.5534C347.818 57.3978 357.991 52.8199 368.673 53.3286ZM368.673 67.0621C360.026 67.0621 353.413 74.1831 353.413 82.3215C353.413 90.9685 360.534 97.5809 368.673 97.5809C377.32 97.5809 383.932 90.4598 383.932 82.3215C383.932 78.2523 382.406 74.1831 379.354 71.1312C377.32 68.0793 373.25 66.5534 368.673 67.0621ZM436.323 53.3286C454.125 53.3286 466.841 66.0448 466.841 81.8128C466.841 98.0895 454.125 110.297 436.323 110.297C425.641 110.806 415.468 105.719 409.873 96.5636C404.278 87.4079 404.278 75.7091 409.873 66.5534C415.468 58.4151 425.641 52.8199 436.323 53.3286ZM436.323 67.0621C427.676 67.0621 421.063 74.1831 421.063 82.3215C421.063 90.9685 428.184 97.5809 436.323 97.5809C444.97 97.5809 451.582 90.4598 451.582 82.3215C451.582 78.2523 450.056 74.1831 447.004 71.1312C444.461 68.0793 440.392 66.5534 436.323 67.0621ZM501.938 53.3286C508.551 52.8199 514.654 55.3632 519.741 58.9237V34H535V108.771H520.758V103.685C515.672 108.262 509.059 110.806 502.447 110.297C494.817 110.806 487.187 107.754 481.592 102.159C475.997 96.5636 472.945 88.9339 472.945 81.3042C472.945 73.6745 475.997 66.0448 481.084 60.9583C486.679 56.3805 494.308 53.3286 501.938 53.3286ZM519.741 78.7609C519.741 72.1485 512.62 67.0621 504.481 67.0621C500.412 66.5534 495.834 68.0793 492.782 71.1312C489.731 74.1831 488.205 78.2523 488.205 82.3215C488.205 91.4771 494.308 97.5809 504.481 97.5809C513.128 97.5809 519.741 92.4944 519.741 85.3733V78.7609Z" fill="black"/>
</svg>
