<svg width="570" height="170" viewBox="0 0 570 170" fill="none" xmlns="http://www.w3.org/2000/svg">
<rect width="570" height="170" fill="white"/>
<path d="M332.2 99.7332H303.867V131.133H289.934V50.7333H335V64.4H303.8V86.1999H332.134L332.2 99.7332ZM387.2 94.9999C387.2 84.8666 380.134 77.9999 370.267 77.9999C360.4 77.9999 353.334 84.8666 353.334 94.9999V100.333C353.334 110.467 360.4 117.667 370.267 117.667C380.134 117.667 387.2 110.467 387.2 100.333V94.9999ZM401.667 94.9999V100.333C401.667 118.733 389.334 131.133 370.334 131.133C351.334 131.133 338.934 118.733 338.934 100.333V94.9999C338.934 76.5999 351.267 64.4666 370.267 64.4666C389.267 64.4666 401.667 76.6666 401.667 94.9999ZM453.867 94.9999C453.867 84.8666 446.8 77.9999 436.933 77.9999C427.067 77.9999 420 84.8666 420 94.9999V100.333C420 110.467 427.134 117.667 436.933 117.667C446.733 117.667 453.867 110.467 453.867 100.333V94.9999ZM468.333 94.9999V100.333C468.333 118.733 456 131.133 437 131.133C418 131.133 405.6 118.733 405.6 100.333V94.9999C405.6 76.5999 417.934 64.4666 436.933 64.4666C455.933 64.4666 468.333 76.6666 468.333 94.9999ZM267.4 73.7333C261.867 68.1999 254.334 65.0666 246.534 65.0666C241.4 65.1333 236.334 66.6 231.934 69.2666C225.4 73.6 220.001 78.2666 210.334 90.6666V99.5332C218.534 88.9333 226.334 80.5999 232.2 75.9999C236.334 72.7999 241.334 71.0666 246.534 70.9999C259.334 70.9999 270.2 81.7333 270.2 94.3999V99.7332C270.2 106 267.667 112 263.2 116.333C258.8 120.733 252.8 123.133 246.6 123.133C236.067 123.133 226.8 116 224.267 106.2L220.001 111.267C223.067 121.533 234.267 129.067 246.534 129.067C254.4 129.067 261.867 125.933 267.4 120.4C273 114.933 276.134 107.467 276.134 99.6666V94.3332C276.134 86.6666 273 79.1999 267.4 73.7333ZM138.801 71.0666C142.601 70.9999 146.267 71.9333 149.601 73.7333C150.867 72.1999 152.267 70.6666 153.734 69.2666C150.334 66.7333 144.667 65.1333 138.801 65.1333C130.467 65.1333 122.867 68.1333 117.467 73.5333C112.067 78.9333 109.134 86.3333 109.134 94.5332V129.267H115.134V94.5332C115.134 80.7333 124.867 71.1333 138.801 71.0666ZM195.867 129.267V94.4666C195.667 83.8666 186.934 75.3999 176.267 75.5999C165.934 75.7999 157.601 84.1333 157.401 94.4666V99.7999C157.401 110.133 166.201 118.867 176.601 118.867C179.467 118.867 183.334 118.2 185.734 116.2V109.933C183.134 111.867 179.867 112.933 176.601 112.933C169.401 113.067 163.467 107.267 163.401 100.133C163.401 100.067 163.401 99.9332 163.401 99.8666V94.5332C163.534 87.2666 169.601 81.4666 176.934 81.5999C184.001 81.7333 189.667 87.4666 189.867 94.5332V129.267H195.867ZM35.0008 91.0666V92.9999C34.8675 113.933 51.6674 131.067 72.6674 131.2C72.8674 131.2 73.0007 131.2 73.2007 131.2C81.4674 131.2 88.734 129.333 94.934 125.733C100.001 122.733 102.267 119.667 102.467 119.4V87.3332H71.6674V93.2666H96.4007V117.533C93.4674 120.4 86.6674 125.2 73.1341 125.2C55.6008 125.4 41.2008 111.4 40.9341 93.7999C40.9341 93.5332 40.9341 93.1999 40.9341 92.9333V91.0666C40.9341 82.7999 44.6674 74.5333 51.2008 68.4666C57.8674 62.2666 66.6007 58.8 75.7341 58.8C84.2674 58.8 90.2007 60.0666 94.934 62.9333V56.2666C90.0007 54.2 84.0674 53.2667 75.7341 53.2667C53.6674 53.2667 35.0008 70.5333 35.0008 91.0666ZM138.801 81.3999C140.801 81.3333 142.734 81.7333 144.534 82.5333C145.267 80.7333 146.134 78.9999 147.201 77.3333C145.534 76.1999 141.667 75.4666 138.801 75.4666C127.867 75.4666 119.601 83.6666 119.601 94.5332V129.267H125.601V94.5332C125.601 86.7999 131.001 81.3999 138.801 81.3999ZM95.0674 74.3999V67.3333C89.6674 64.4666 83.734 63.1333 75.8674 63.1333C67.9341 63.0666 60.3341 65.9999 54.4674 71.3333C48.6674 76.6666 45.4674 83.5999 45.4674 90.9999V92.9333C45.4674 108.267 57.8674 120.733 73.2007 120.8C85.6674 120.8 90.734 116.733 92.0007 115.467V97.5999H71.6674V103.533H86.334V112.467H86.2674C84.4007 113.2 80.4674 114.8 73.0674 114.8C67.3341 114.8 61.8008 112.533 57.7341 108.467C53.6008 104.333 51.3341 98.7332 51.4008 92.9333V91.0666C51.4008 79.1999 62.6007 69.1333 75.8007 69.1333C85.0007 69.2 90.4007 70.6666 95.0674 74.3999ZM236.8 85.5999C239.334 82.9999 242.867 81.4666 246.534 81.3333C253.734 81.1999 259.667 86.9999 259.734 94.1332C259.734 94.1999 259.734 94.2666 259.734 94.3332V99.6666C259.8 106.867 254 112.733 246.8 112.8C246.734 112.8 246.6 112.8 246.534 112.8C242.934 112.8 239.467 110.867 236.8 107.333C234.334 104.067 232.934 100.2 232.6 96.1999L227.734 102.133C228.667 106.667 231 110.8 234.4 114C237.734 117.067 242.067 118.8 246.534 118.867C257.134 118.867 265.734 110.4 265.734 99.7999V94.3999C265.667 89.3332 263.6 84.5333 260 80.9999C256.4 77.3999 251.6 75.3333 246.467 75.3333C243.267 75.3333 238.267 76.4666 232.267 81.8666C230.667 83.4666 226.867 87.1999 224.6 89.8666C220.734 94.0666 215.134 100.4 210.334 106.667V116C215.667 109.2 218.667 105.467 223.667 99.7332C228.134 94.5999 233.667 88.2666 236.8 85.5999ZM147.001 99.8666C147.001 107.667 150.201 115.133 155.734 120.6C161.267 126.133 168.801 129.267 176.601 129.267C179.734 129.333 182.867 128.667 185.734 127.4V121.467C182.867 122.667 179.734 123.267 176.601 123.333C163.801 123.333 152.934 112.6 152.934 99.8666V94.5332C152.934 81.7999 163.734 71.0666 176.601 71.0666C182.867 70.9999 188.934 73.4666 193.334 77.8666C197.734 82.2666 200.201 88.1999 200.201 94.4666V129.2H206.201V93.2666C205.401 76.9333 191.601 64.3333 175.267 65.0666C167.867 65.4 160.934 68.5333 155.667 73.7333C150.067 79.1999 146.934 86.6666 146.934 94.4666V99.8666H147.001ZM216.467 76.7333C218.267 74.4666 220.267 72.3333 222.467 70.4666V39H216.467V76.7333ZM226.934 68.0666V39.0667H232.934V64C230.8 65.0666 228.8 66.4666 226.934 68.0666ZM476.2 100.933C476.2 119 487.733 131.2 505.667 131.2C523.6 131.2 535 119 535 100.933V42.9333H521.333V100.933C521.333 110.867 514.867 117.867 505.6 117.867C496.333 117.867 489.733 110.933 489.733 100.933V95.5999C489.733 85.7999 496.267 79.0666 505.6 79.0666C515 79.0666 521.333 85.2666 521.333 94.4666V72.0666C519.333 69.0666 513.067 65.7333 505.6 65.7333C487.667 65.7333 476.133 77.6666 476.133 95.5999L476.2 100.933Z" fill="#009C49"/>
</svg>
